# xmcd CD database file
#
# Track frame offsets:
#	150
#	12133
#	31143
#	42185
#	56776
#	68781
#	81997
#	92653
#	104011
#	117404
#	128224
#	140438
#	152692
#	163614
#	176883
#	187299
#	197861
#	213714
#	224895
#	235392
#	246043
#	257089
#	270101
#	284522
#
# Disc length: 3987 seconds
#
# Revision: 1
# Processed by: cddbd v1.5.2PL0 Copyright (c) Steve Scherf et al.
# Submitted via: CDex 1.70beta2
#
DISCID=740f9118
DTITLE=Jean Wells - Soul On Soul
DYEAR=2011
DGENRE=Soul
TTITLE0=Have A Little Mercy (Otis-Burton)
TTITLE1=I'll Drown In My Own Tears (Glover)
TTITLE2=After Loving You (Wells-Martin-Bailey)
TTITLE3=Sit Down And Cry (Otis-Stallman)
TTITLE4=Ease Away A Little Bit At A Time (Otis-McCoy-Horton)
TTITLE5=Our Sweet Love Turned Bitter (Spinozza-Wells)
TTITLE6=Somebody's Been Loving You (But It Ain't Been Me) (Wells)
TTITLE7=Keep Your Mouth Shut And Your Eyes Open (Wells)
TTITLE8=If You've Ever Loved Someone (Otis-DeCoteaux)
TTITLE9=Broomstick Horse Cowboy (Wells)
TTITLE10=I Couldn't Love You More Than I Do Now (Wells)
TTITLE11=I Feel Good (Wells)
TTITLE12=With My Love And What You've Got (We Could Turn This World Around) (Wells)
TTITLE13=Keep On Doin' It (Wells)
TTITLE14=Make Time To Make Time For Me (Harris-Baker-Fielder)
TTITLE15=Try Me And See (Otis-Burton-McCoy)
TTITLE16=Roll Up Your Sleeves And Come Out Lovin' (Wells)
TTITLE17=What Have I Got To Lose (Wells)
TTITLE18=Puttin' The Best On The Outside (Stevenson-Cordea-Otis)
TTITLE19=He Ain't Doing Bad (Wells)
TTITLE20=Hello Baby, Goodbye Too (Otis-DeCoteaux)
TTITLE21=Daddy Reconsider (Previously Unreleased) (Clyde Otis)
TTITLE22=I Want To Live (Previously Unreleased) (Clyde Otis)
TTITLE23=Ordinary Woman (Previously Unreleased) (Clyde Otis)
EXTD=YEAR: 2011
EXTT0=
EXTT1=
EXTT2=
EXTT3=
EXTT4=
EXTT5=
EXTT6=
EXTT7=
EXTT8=
EXTT9=
EXTT10=
EXTT11=
EXTT12=
EXTT13=
EXTT14=
EXTT15=
EXTT16=
EXTT17=
EXTT18=
EXTT19=
EXTT20=
EXTT21=
EXTT22=
EXTT23=
PLAYORDER=
